<svg id="master" xmlns='http://www.w3.org/2000/svg' x='0' y='0' viewBox='0 0 32 32' preserveAspectRatio='xMidYMid meet'>
    <style>
        #master
        {
            scroll-behavior: smooth;
        }

        use 
        {
            transform-origin: 16px 16px;
        }

        :is(use):target
        {
            display: block;
        }

        :is(use):not(:target)
        {
            display: none;
        }

        foreignObject > span > svg use[id$='-circular'],
        :is(use[id$='-circular']):target
        {
            clip-path: url(#circular)
        }

        foreignObject > span > svg use[id$='-squircle'],
        :is(use[id$='-squircle']):target
        {
            clip-path: url(#squircle)
        }

        :is(use[id$='-up']):target
        {
            transform: rotate(0deg)
        }

        foreignObject > span > svg use[id$='-up']
        {
            transform: translate(58px, 40px) rotate(0deg) !important;
        }

        :is(use[id$='-right']):target
        {
            transform: rotate(90deg)
        }

        foreignObject > span > svg use[id$='-right']
        {
            transform: translate(58px, 40px) rotate(90deg) !important;
        }

        :is(use[id$='-down']):target
        {
            transform: rotate(180deg)
        }

        foreignObject > span > svg use[id$='-down']
        {
            transform: translate(58px, 40px) rotate(180deg) !important;
        }


        :is(use[id$='-left']):target
        {
            transform: rotate(270deg)
        }

        foreignObject > span > svg use[id$='-left']
        {
            transform: translate(58px, 40px) rotate(270deg) !important;
        }

        foreignObject
        {
            width: 100%;
            height: 100%;
            background-image: radial-gradient(#ccc 10%, transparent 10%), radial-gradient(#ccc 10%, transparent 10%);
            background-color: #f7f7f7;
            background-position: 0 0, 12px 12px;
            background-size: 12px 12px;
        }

        foreignObject > span > svg use
        {
            display: block !important;
            transform: translate(58px, 40px);
        }

        foreignObject > span > svg
        {
            width: 100%;
            height: 100%;
            max-height: 148px;
            border-radius: 8px;
            background: #fff;
            box-shadow: 0 0 7px #dcdcdc;
            border: 1px solid #d1d1d1;
            transition: 0.2s;
        }

        foreignObject > span > svg *
        {
            pointer-events: none;
        }

        foreignObject > span > svg:hover
        {
            cursor: pointer;
            border: 1px solid #acacac;
            box-shadow: 0 0 7px #cfcece;
        }

        foreignObject > span > svg > text
        {
            fill: #000;
            font: 10px monospace;
            cursor: text;
        }

        foreignObject > span
        {
            display: grid;
            gap: 10px;
            grid: repeat(auto-fill, 148px) / repeat(auto-fill, 148px);
            place-items: center;
            padding: 20px;
            justify-content: center;
        }
    </style>

    <script>
        {
            const foreignObject = document.createElementNS( 'http://www.w3.org/2000/svg', 'foreignObject' )
            foreignObject.setAttribute( 'width', '100%' )
            foreignObject.setAttribute( 'height', '100%' )
            //foreignObject.setAttribute( 'overflow', 'scroll' )

            foreignObject.appendChild( document.createElement( 'span' ) )
            foreignObject.firstElementChild.setAttribute( 'xmlns', 'http://www.w3.org/1999/xhtml' )

            let setHash;

            const showAll = event =>
            {
                let svg = document.querySelector( 'svg' )
                svg.removeAttribute( 'viewBox' )

                if( setHash )
                {
                    return
                }

                let uses = [ ...document.querySelectorAll( 'use' ) ].map( use =>
                {
                    use.removeAttribute( 'style' )
                    return use
                })

                if( location.href.match( /#\w/ ) )
                {
                    svg.setAttribute( 'viewBox', '0 0 32 32' )
                    foreignObject.replaceWith( ...uses )
                    document.querySelector( location.hash )?.style?.setProperty( 'display', 'block' )
                }
                else
                {
                    foreignObject.firstElementChild.replaceChildren( ...uses.map( use =>
                    {
                        let svg = document.createElementNS( 'http://www.w3.org/2000/svg', 'svg' )

                        svg.setAttribute( 'xmlns', 'http://www.w3.org/2000/svg' )
                        svg.appendChild( use )

                        let text = document.createElementNS( 'http://www.w3.org/2000/svg', 'text' )
                        text.textContent = `#${ use.id }`
                        text.setAttribute( 'dx', 74 )
                        text.setAttribute( 'dy', 120 )
                        text.setAttribute( 'text-anchor', 'middle' )

                        svg.appendChild( text )


                        svg.addEventListener( 'click', event =>
                        {
                            event.preventDefault()
                            event.stopPropagation()
                            document.querySelectorAll( 'svg > foreignObject > span > svg' )
                            .forEach( svg =>
                            {
                                if( svg !== event.target )
                                {
                                    svg.removeAttribute( 'style' )
                                }
                            })
                            event.target.style.border = '1px solid #717171'
                            setHash = true
                            location.hash = use.id

                            let text = event.target.querySelector( 'text' )
                            let range = document.createRange()
                            range.selectNode( text )
                            getSelection().removeAllRanges()
                            getSelection().addRange( range )

                            navigator.clipboard.writeText( text.textContent )
                        })

                        setHash = false

                        return svg
                    }))

                    document.querySelector( 'svg' ).appendChild( foreignObject )

                    const span   = document.getElementsByTagName('span')[0]
                    const master = document.getElementById('master')

                    const resizeObserver = new ResizeObserver( entries =>
                    {
                      entries.forEach( entry =>
                      {
                        master.style.height = entry.contentRect.height + 80 + 'px'
                        //span.style.height = entry.contentRect.height + 'px'
                      })
                    })

                    resizeObserver.observe( span )
                }

                event.preventDefault()
                event.stopPropagation()
            }

            addEventListener( 'hashchange', showAll )
            addEventListener( 'load', showAll, { once: true } )
        }
    </script>

<defs>
    <clipPath id="circular" clipPathUnits="userSpaceOnUse">
        <circle id="c" cx="16" cy="16" r="16"/>
    </clipPath>

    <clipPath id="squircle" clipPathUnits="userSpaceOnUse">
        <rect x="0" width="32" height="32" rx="5"/>
    </clipPath>
</defs>

<symbol id='$arrow'>
    <path d='M 15.989 0 C 28.296 0 35.987 13.332 29.835 24 C 23.681 34.666 8.296 34.666 2.142 24 C 0.74 21.566 0 18.809 0 16 C 0.01 7.166 7.164 0.009 15.989 0 Z M 15.989 14.829 L 22.57 21.414 L 25.396 18.586 L 15.989 9.172 L 6.581 18.586 L 9.407 21.414 L 15.989 14.829 Z' style="fill: rgb(0, 0, 0);"/>
</symbol>
<use href='#$arrow' id='arrow-up'></use>
<use href='#$arrow' id='arrow-right'></use>
<use href='#$arrow' id='arrow-down'></use>
<use href='#$arrow' id='arrow-left'></use>

<symbol id='$outlinedArrow'>
    <path d='M 15.988 32 C 28.296 32 35.988 18.666 29.834 8 C 23.68 -2.667 8.296 -2.667 2.142 8 C 0.738 10.432 0 13.191 0 16 C 0.009 24.832 7.162 31.989 15.988 32 Z M 15.988 3.2 C 25.834 3.2 31.987 13.866 27.065 22.4 C 22.142 30.933 9.834 30.933 4.911 22.4 C 3.7889999999999997 20.453 3.197 18.247 3.197 16 C 3.205 8.933 8.928 3.207 15.988 3.2 Z M 15.988 15.063 L 21.253 20.331 L 23.514 18.069 L 15.988 10.538 L 8.462 18.069 L 10.723 20.331 L 15.988 15.063 Z' style="fill: rgb(0, 0, 0);"/>
</symbol>
<use href='#$outlinedArrow' id='outlinedArrow-up'></use>
<use href='#$outlinedArrow' id='outlinedArrow-right'></use>
<use href='#$outlinedArrow' id='outlinedArrow-down'></use> 
<use href='#$outlinedArrow' id='outlinedArrow-left'></use>

<symbol id="$behance"> 
    <path d="M 0 0 L 32 0 L 32 32 L 0 32 Z M 13.839 18.176 C 13.839 19.32 13.068 19.629 12.1 19.629 L 9.277 19.629 L 9.277 16.617 L 12.145 16.617 C 13.177 16.617 13.839 17.032 13.839 18.176 Z M 11.776 12.213 C 12.65 12.213 13.455 12.424 13.463 13.478 C 13.463 14.411 12.808 14.788 11.957 14.788 L 9.269 14.788 L 9.269 12.213 Z M 16.35 18.236 C 16.35 16.866 15.665 15.834 14.318 15.45 C 15.246 15.069 15.844 14.157 15.823 13.154 C 15.823 11.106 14.385 10.353 12.273 10.353 L 7.04 10.353 L 7.04 21.429 L 12.424 21.429 C 14.423 21.429 16.343 20.473 16.343 18.236 Z M 18.986 12.567 L 23.436 12.567 L 23.436 11.083 L 18.978 11.083 Z M 20.981 14.893 C 22.058 14.893 22.54 15.179 22.735 16.271 L 19.136 16.271 C 19.166 15.661 19.573 14.878 20.974 14.878 Z M 24.942 17.694 C 25.1 15.24 23.774 13.214 21.034 13.214 C 18.587 13.214 16.893 15.036 16.893 17.423 C 16.893 19.893 18.496 21.617 21.034 21.617 C 22.856 21.617 24.279 20.631 24.896 18.748 L 22.954 18.748 C 22.619 19.471 21.905 19.943 21.109 19.968 C 19.889 19.968 19.197 19.095 19.136 17.709 Z" style="fill: rgb(29, 111, 237);"></path>
</symbol>
<use href='#$behance' id='behance'></use>
<use href='#$behance' id='behance-circular'></use>
<use href='#$behance' id='behance-squircle'></use>

<symbol id="$deviantart"> 
    <path d="M 0 0 L 32 0 L 32 32 L 0 32 Z M 21.546 10.3 L 21.546 7.04 L 18.289 7.04 L 17.962 7.368 L 16.426 10.296 L 15.94 10.624 L 10.455 10.624 L 10.455 15.1 L 13.471 15.1 L 13.742 15.424 L 10.455 21.704 L 10.455 24.96 L 13.711 24.96 L 14.039 24.633 L 15.575 21.704 L 16.057 21.376 L 21.546 21.376 L 21.546 16.9 L 18.53 16.9 L 18.259 16.572 Z" style="fill: rgb(5, 204, 71);"></path>
</symbol>
<use href='#$deviantart' id='deviantart'></use>
<use href='#$deviantart' id='deviantart-circular'></use>
<use href='#$deviantart' id='deviantart-squircle'></use>

<symbol id="$dribbble"> 
    <path d="M 0 0 L 32 0 L 32 32 L 0 32 Z M 20.228 22.174 C 19.926 20.434 19.456 18.726 18.824 17.077 C 20.346 16.906 21.885 16.971 23.387 17.269 C 23.036 19.262 21.898 21.03 20.228 22.174 Z M 11.46 21.944 C 12.721 20.04 14.472 18.157 17.344 17.367 C 18.054 19.156 18.559 21.02 18.85 22.923 C 17.944 23.292 16.975 23.481 15.997 23.481 C 14.357 23.481 12.762 22.941 11.46 21.944 Z M 8.52 16 L 8.52 15.759 L 8.565 15.759 C 11.231 15.759 13.881 15.582 16.253 14.886 C 16.426 15.262 16.607 15.612 16.768 15.992 C 13.648 16.911 11.701 18.963 10.368 20.92 C 9.171 19.562 8.514 17.811 8.52 16 Z M 12.8 9.242 C 13.816 10.614 14.735 12.055 15.552 13.553 C 13.317 14.099 11.02 14.352 8.72 14.306 C 9.243 12.087 10.744 10.225 12.8 9.242 Z M 20.864 10.304 C 19.833 11.544 18.498 12.495 16.991 13.067 C 16.176 11.562 15.263 10.111 14.257 8.727 C 14.835 8.589 15.426 8.519 16.019 8.52 C 17.789 8.52 19.501 9.153 20.846 10.304 Z M 21.896 11.377 C 22.892 12.637 23.454 14.184 23.5 15.789 C 21.772 15.457 20.001 15.415 18.259 15.665 C 18.067 15.232 17.883 14.803 17.668 14.392 C 19.297 13.747 20.742 12.712 21.877 11.377 Z M 16 7.04 C 9.103 7.04 4.792 14.507 8.241 20.48 C 11.69 26.453 20.311 26.453 23.76 20.48 C 24.546 19.118 24.96 17.573 24.96 16 C 24.963 11.051 20.95 7.038 16 7.04 Z" style="fill: rgb(234, 76, 137);"></path>
</symbol>
<use href='#$dribbble' id='dribbble'></use>
<use href='#$dribbble' id='dribbble-circular'></use>
<use href='#$dribbble' id='dribbble-squircle'></use>

<symbol id="$facebook"> 
    <path d="M 0 0 L 32 0 L 32 32 L 0 32 Z M 23.97 7.04 L 8.031 7.04 C 7.484 7.04 7.04 7.483 7.04 8.03 L 7.04 23.97 C 7.04 24.517 7.484 24.96 8.031 24.96 L 16.61 24.96 L 16.61 18.022 L 14.276 18.022 L 14.276 15.315 L 16.61 15.315 L 16.61 13.323 C 16.61 11.008 18.026 9.747 20.089 9.747 C 20.787 9.746 21.484 9.781 22.178 9.852 L 22.178 12.273 L 20.744 12.273 C 19.615 12.273 19.404 12.808 19.404 13.591 L 19.404 15.315 L 22.084 15.315 L 21.734 18.022 L 19.404 18.022 L 19.404 24.96 L 23.97 24.96 C 24.517 24.96 24.961 24.517 24.961 23.97 L 24.961 8.03 C 24.961 7.483 24.517 7.04 23.97 7.04 Z" style="fill: rgb(58, 90, 153);"></path>
</symbol>
<use href='#$facebook' id='facebook'></use>
<use href='#$facebook' id='facebook-circular'></use>
<use href='#$facebook' id='facebook-squircle'></use>

<symbol id="$github"> 
    <path d="M 0 0 L 32 0 L 32 32 L 0 32 Z M 16.001 7.262 C 9.103 7.269 4.799 14.739 8.254 20.709 C 9.349 22.604 11.101 24.031 13.177 24.723 C 13.625 24.806 13.787 24.527 13.787 24.294 C 13.787 24.06 13.787 23.371 13.787 22.626 C 11.295 23.164 10.775 21.568 10.775 21.568 C 10.369 20.533 9.781 20.254 9.781 20.254 C 8.968 19.701 9.841 19.712 9.841 19.712 C 10.417 19.791 10.925 20.131 11.216 20.634 C 12.014 22.005 13.313 21.609 13.825 21.387 C 13.863 20.933 14.065 20.507 14.393 20.19 C 12.401 19.964 10.308 19.193 10.308 15.759 C 10.296 14.869 10.628 14.008 11.234 13.357 C 10.958 12.585 10.989 11.736 11.321 10.985 C 11.321 10.985 12.074 10.744 13.783 11.904 C 15.252 11.502 16.802 11.502 18.271 11.904 C 19.984 10.744 20.733 10.985 20.733 10.985 C 21.064 11.736 21.096 12.585 20.819 13.357 C 21.425 14.009 21.756 14.869 21.742 15.759 C 21.742 19.204 19.649 19.961 17.653 20.183 C 18.084 20.623 18.305 21.228 18.259 21.843 C 18.259 23.04 18.259 24.004 18.259 24.301 C 18.259 24.538 18.421 24.817 18.877 24.73 C 25.421 22.55 27.15 14.104 21.991 9.527 C 20.35 8.071 18.232 7.268 16.038 7.27 Z M 10.353 19.991 C 10.289 19.961 10.218 19.972 10.199 20.017 C 10.18 20.062 10.218 20.122 10.282 20.153 C 10.346 20.183 10.433 20.171 10.433 20.126 C 10.455 20.081 10.417 20.021 10.353 19.991 Z M 10.771 20.345 C 10.711 20.281 10.632 20.262 10.587 20.303 C 10.547 20.362 10.559 20.442 10.613 20.488 C 10.67 20.552 10.756 20.57 10.798 20.529 C 10.843 20.491 10.832 20.409 10.771 20.345 Z M 11.152 20.83 C 11.095 20.755 11.009 20.717 10.952 20.755 C 10.896 20.793 10.899 20.89 10.952 20.969 C 11.005 21.049 11.095 21.086 11.152 21.049 C 11.208 21.007 11.208 20.905 11.152 20.83 Z M 11.585 21.316 C 11.509 21.244 11.408 21.229 11.355 21.282 C 11.302 21.335 11.329 21.44 11.404 21.512 C 11.479 21.583 11.585 21.598 11.633 21.545 C 11.686 21.493 11.66 21.387 11.585 21.316 Z M 12.157 21.651 C 12.055 21.621 11.95 21.651 11.931 21.722 C 11.912 21.794 11.976 21.877 12.078 21.907 C 12.179 21.937 12.281 21.903 12.304 21.835 C 12.322 21.764 12.258 21.681 12.157 21.651 Z M 12.842 21.756 C 12.733 21.76 12.65 21.824 12.65 21.896 C 12.65 21.967 12.74 22.024 12.846 22.024 C 12.951 22.024 13.034 21.963 13.034 21.888 C 13.034 21.817 12.951 21.753 12.842 21.756 Z M 13.505 21.673 C 13.399 21.692 13.328 21.771 13.339 21.843 C 13.35 21.914 13.444 21.956 13.55 21.937 C 13.655 21.918 13.719 21.843 13.719 21.771 C 13.704 21.7 13.61 21.655 13.505 21.673 Z" style="fill: rgb(63, 145, 203);"></path>
</symbol>
<use href='#$github' id='github'></use>
<use href='#$github' id='github-circular'></use>
<use href='#$github' id='github-squircle'></use>

<symbol id="$tiktok"> 
    <path d="M 0 0 L 32 0 L 32 32 L 0 32 Z M 23.872 11.328 L 23.872 11.335 C 23.873 11.335 23.875 11.336 23.876 11.336 Z M 23.872 11.335 C 23.481 11.246 23.104 11.109 22.747 10.929 C 22.247 10.665 21.794 10.321 21.406 9.909 C 21.051 9.674 20.725 9.397 20.435 9.084 C 19.865 8.449 19.484 7.666 19.336 6.826 L 16.942 6.826 L 16.942 19.524 C 16.968 19.966 16.919 20.409 16.795 20.834 C 16.56 21.543 16.036 22.119 15.353 22.419 C 14.444 22.859 13.365 22.756 12.556 22.152 C 12.319 21.986 12.11 21.782 11.938 21.549 C 11.825 21.489 11.716 21.421 11.599 21.346 C 11.073 20.956 10.701 20.392 10.55 19.754 C 10.057 17.673 12.001 15.838 14.05 16.452 L 14.05 13.862 C 13.331 13.873 12.621 14.021 11.957 14.298 C 11.346 14.537 10.777 14.874 10.274 15.296 C 9.705 15.788 9.226 16.375 8.859 17.032 C 8.392 17.878 8.14 18.825 8.125 19.791 C 8.12 20.533 8.241 21.27 8.482 21.971 C 8.773 22.79 9.244 23.534 9.86 24.147 C 10.867 24.806 12.045 25.158 13.248 25.16 C 14.114 25.158 14.969 24.969 15.756 24.606 C 16.529 24.247 17.222 23.735 17.792 23.1 C 18.261 22.557 18.635 21.938 18.899 21.271 C 19.142 20.597 19.277 19.889 19.298 19.174 L 19.298 12.427 C 19.34 12.45 19.874 12.804 19.874 12.804 C 20.491 13.163 21.155 13.436 21.847 13.613 C 22.513 13.764 23.19 13.856 23.872 13.888 Z" style="fill: rgb(0, 0, 0);"></path>
    <path d="M 7.853 23.1 L 7.917 23.285 C 7.906 23.266 7.906 23.202 7.853 23.1 Z M 10.444 18.914 C 10.575 17.124 12.341 15.923 14.054 16.459 L 14.054 13.869 C 14.374 13.861 14.694 13.881 15.01 13.93 L 15.01 17.261 C 13.297 16.725 11.531 17.926 11.4 19.716 C 11.374 20.375 11.563 21.025 11.938 21.568 C 11.825 21.508 11.716 21.44 11.599 21.365 C 10.824 20.796 10.389 19.874 10.444 18.914 Z M 20.443 9.077 C 19.874 8.44 19.493 7.658 19.343 6.818 L 20.254 6.818 C 20.211 7.945 20.617 9.043 21.384 9.871 L 21.384 9.894 C 21.027 9.661 20.701 9.384 20.413 9.069 L 20.443 9.077 Z M 24.847 11.426 L 24.847 14.682 C 24.165 14.651 23.488 14.559 22.822 14.408 C 22.131 14.231 21.469 13.958 20.853 13.598 L 20.277 13.222 L 20.277 19.968 C 20.254 20.684 20.119 21.391 19.878 22.065 C 19.303 23.548 18.174 24.749 16.731 25.416 C 15.945 25.78 15.089 25.969 14.223 25.969 C 13.02 25.967 11.842 25.615 10.835 24.956 C 10.488 24.719 10.165 24.448 9.871 24.147 C 10.878 24.808 12.056 25.16 13.26 25.16 C 14.125 25.158 14.981 24.969 15.767 24.606 C 16.541 24.247 17.233 23.735 17.804 23.1 C 18.273 22.557 18.647 21.938 18.91 21.271 C 19.153 20.597 19.288 19.889 19.31 19.174 L 19.31 12.424 C 19.355 12.446 19.886 12.8 19.886 12.8 C 20.503 13.16 21.166 13.432 21.858 13.61 C 22.524 13.761 23.202 13.853 23.884 13.884 L 23.884 11.324 C 24.198 11.409 24.523 11.443 24.847 11.426 Z" style="fill: rgb(238, 29, 82);"></path>
    <path d="M 7.53 21.188 L 7.59 21.361 C 7.582 21.342 7.56 21.282 7.53 21.188 Z" style="fill: rgb(105, 201, 208);"></path>
    <path d="M 11.961 14.306 C 11.349 14.544 10.78 14.881 10.278 15.304 C 9.708 15.796 9.229 16.385 8.862 17.043 C 8.395 17.889 8.143 18.836 8.128 19.802 C 8.126 20.544 8.247 21.281 8.486 21.982 C 8.707 22.568 9.01 23.12 9.386 23.62 C 9.535 23.808 9.695 23.988 9.864 24.158 C 9.321 23.786 8.838 23.334 8.429 22.818 C 8.052 22.321 7.749 21.772 7.53 21.188 C 7.286 20.486 7.167 19.747 7.176 19.004 C 7.194 18.038 7.445 17.09 7.906 16.241 C 8.276 15.585 8.756 14.998 9.326 14.506 C 10.156 13.824 11.143 13.36 12.198 13.158 C 12.812 13.05 13.44 13.04 14.058 13.128 L 14.058 13.881 C 13.337 13.891 12.626 14.039 11.961 14.317 L 11.961 14.306 Z" style="fill: rgb(105, 201, 208);"></path>
    <path d="M 19.343 6.826 L 16.942 6.826 L 16.942 19.543 C 16.966 19.985 16.917 20.427 16.795 20.853 C 16.176 22.595 14.057 23.254 12.559 22.17 C 12.32 22.008 12.11 21.805 11.938 21.572 C 12.696 21.996 13.614 22.02 14.393 21.636 C 15.076 21.336 15.6 20.76 15.835 20.051 C 15.959 19.626 16.008 19.183 15.982 18.741 L 15.982 6.024 L 19.291 6.024 C 19.271 6.292 19.289 6.562 19.343 6.826 Z M 23.861 10.624 L 23.861 11.328 C 23.469 11.239 23.09 11.103 22.732 10.922 C 22.232 10.657 21.779 10.312 21.391 9.901 C 21.516 9.98 21.64 10.052 21.768 10.12 C 22.416 10.462 23.14 10.635 23.872 10.624 L 23.861 10.624 Z" style="fill: rgb(105, 201, 208);"></path>
</symbol>
<use href='#$tiktok' id='tiktok'></use>
<use href='#$tiktok' id='tiktok-circular'></use>
<use href='#$tiktok' id='tiktok-squircle'></use>

<symbol id="$tiktok-mono"> 
    <path d="M 0 0 L 32 0 L 32 32 L 0 32 Z M 19.829 6.212 C 19.829 6.216 19.83 6.22 19.83 6.224 L 19.844 6.224 Z M 19.83 6.224 L 16.606 6.224 L 16.606 17.905 C 17.096 24.147 11.234 23.202 10.779 20.006 C 10.545 18.338 11.374 17.386 12.879 16.885 C 13.386 16.72 13.905 16.594 14.43 16.509 L 14.43 13.207 C 7.718 13.44 6.434 19.46 8.527 22.882 C 11.776 28.202 19.878 25.887 19.878 18.455 L 19.878 12.612 C 21.467 13.553 22.833 14.08 24.396 13.93 L 24.396 10.82 C 21.715 10.651 20.164 8.999 19.83 6.224 Z" style="fill: rgb(0, 0, 0);"></path>
</symbol>
<use href='#$tiktok-mono' id='tiktok-mono'></use>
<use href='#$tiktok-mono' id='tiktok-mono-circular'></use>
<use href='#$tiktok-mono' id='tiktok-mono-squircle'></use>

<symbol id="$instagram"> 
    <path d="M 0 0 L 32 0 L 32 32 L 0 32 Z M 16 8.659 C 18.391 8.659 18.677 8.659 19.622 8.712 C 20.19 8.717 20.754 8.821 21.286 9.02 C 22.065 9.323 22.681 9.939 22.984 10.718 C 23.183 11.251 23.288 11.814 23.293 12.382 C 23.338 13.327 23.345 13.613 23.345 16.004 C 23.345 18.394 23.345 18.681 23.293 19.626 C 23.288 20.194 23.183 20.757 22.984 21.29 C 22.681 22.069 22.065 22.685 21.286 22.987 C 20.754 23.187 20.19 23.291 19.622 23.296 C 18.677 23.341 18.395 23.349 16 23.349 C 13.606 23.349 13.324 23.349 12.379 23.296 C 11.81 23.291 11.247 23.187 10.715 22.987 C 9.936 22.685 9.319 22.069 9.017 21.29 C 8.818 20.757 8.713 20.194 8.708 19.626 C 8.663 18.681 8.655 18.394 8.655 16.004 C 8.655 13.613 8.655 13.327 8.708 12.382 C 8.713 11.814 8.818 11.251 9.017 10.718 C 9.319 9.939 9.936 9.323 10.715 9.02 C 11.247 8.821 11.81 8.717 12.379 8.712 C 13.324 8.666 13.61 8.659 16 8.659 Z M 16 7.044 C 13.568 7.044 13.263 7.044 12.307 7.097 C 11.563 7.112 10.828 7.253 10.131 7.514 C 8.917 7.977 7.958 8.936 7.496 10.15 C 7.235 10.846 7.093 11.582 7.078 12.326 C 7.037 13.282 7.025 13.587 7.025 16.019 C 7.025 18.451 7.025 18.756 7.078 19.712 C 7.093 20.456 7.235 21.192 7.496 21.888 C 7.958 23.102 8.917 24.061 10.131 24.523 C 10.828 24.785 11.563 24.926 12.307 24.941 C 13.263 24.983 13.568 24.994 16 24.994 C 18.432 24.994 18.737 24.994 19.694 24.941 C 20.437 24.926 21.173 24.785 21.87 24.523 C 23.084 24.061 24.042 23.102 24.505 21.888 C 24.766 21.192 24.907 20.456 24.923 19.712 C 24.964 18.756 24.975 18.451 24.975 16.019 C 24.975 13.587 24.975 13.282 24.923 12.326 C 24.907 11.582 24.766 10.846 24.505 10.15 C 24.042 8.936 23.084 7.977 21.87 7.514 C 21.173 7.253 20.437 7.112 19.694 7.097 C 18.737 7.055 18.432 7.044 16 7.044 Z M 16 11.4 C 12.459 11.4 10.245 15.233 12.016 18.3 C 13.787 21.367 18.214 21.367 19.984 18.3 C 20.388 17.601 20.601 16.808 20.601 16 C 20.601 13.459 18.541 11.4 16 11.4 Z M 16 18.986 C 13.702 18.986 12.266 16.498 13.415 14.507 C 14.564 12.517 17.437 12.517 18.586 14.507 C 18.848 14.961 18.986 15.476 18.986 16 C 18.986 17.649 17.649 18.986 16 18.986 Z M 20.782 10.142 C 20.187 10.142 19.705 10.624 19.705 11.219 C 19.705 11.814 20.187 12.296 20.782 12.296 C 21.377 12.296 21.859 11.814 21.859 11.219 C 21.859 10.624 21.377 10.142 20.782 10.142 Z" style="fill: rgb(213, 0, 96);"></path>
</symbol>
<use href='#$instagram' id='instagram'></use>
<use href='#$instagram' id='instagram-circular'></use>
<use href='#$instagram' id='instagram-squircle'></use>

<symbol id="$linkedin"> 
    <path d="M 0 0 L 32 0 L 32 32 L 0 32 Z M 7.27 24.885 L 10.986 24.885 L 10.986 12.936 L 7.27 12.936 Z M 6.976 9.152 C 6.976 9.53 7.076 9.901 7.265 10.229 C 8.094 11.664 10.166 11.664 10.995 10.229 C 11.824 8.793 10.788 6.999 9.13 6.999 C 7.941 6.999 6.976 7.963 6.976 9.152 Z M 13.331 24.885 L 17.039 24.885 L 17.039 18.974 C 17.039 17.412 17.363 15.906 19.268 15.906 C 21.173 15.906 21.196 17.69 21.196 19.076 L 21.196 24.885 L 24.908 24.885 L 24.908 18.33 C 24.908 15.115 24.219 12.642 20.454 12.642 C 19.017 12.588 17.668 13.329 16.942 14.569 L 16.874 14.569 L 16.874 12.936 L 13.316 12.936 Z" style="fill: rgb(0, 118, 178);"></path>
</symbol>
<use href='#$linkedin' id='linkedin'></use>
<use href='#$linkedin' id='linkedin-circular'></use>
<use href='#$linkedin' id='linkedin-squircle'></use>

<symbol id="$tumblr"> 
    <path d="M 0 0 L 32 0 L 32 32 L 0 32 Z M 18.406 25.6 C 20.326 25.6 22.231 24.915 22.86 24.094 L 22.988 23.929 L 21.798 20.401 C 21.786 20.368 21.754 20.345 21.719 20.345 L 19.061 20.345 C 19.025 20.346 18.992 20.323 18.982 20.288 C 18.948 20.144 18.93 19.996 18.929 19.848 L 18.929 15.522 C 18.929 15.478 18.965 15.443 19.008 15.443 L 22.141 15.443 C 22.184 15.443 22.22 15.408 22.22 15.364 L 22.22 10.944 C 22.22 10.9 22.184 10.865 22.141 10.865 L 19.023 10.865 C 18.98 10.865 18.944 10.83 18.944 10.786 L 18.944 6.479 C 18.942 6.435 18.906 6.4 18.862 6.4 L 13.399 6.4 C 12.93 6.408 12.541 6.763 12.488 7.228 C 12.217 9.45 11.197 10.782 9.28 11.422 L 9.07 11.494 C 9.036 11.504 9.013 11.534 9.013 11.569 L 9.013 15.364 C 9.015 15.407 9.049 15.441 9.092 15.443 L 11.05 15.443 L 11.05 20.111 C 11.05 23.842 13.632 25.6 18.406 25.6 Z M 22.069 23.797 C 21.467 24.373 20.236 24.802 19.057 24.821 L 18.926 24.821 C 15.048 24.821 14.031 21.858 14.031 20.107 L 14.031 14.735 C 14.029 14.691 13.993 14.656 13.949 14.656 L 12.066 14.656 C 12.023 14.656 11.987 14.621 11.987 14.577 L 11.987 12.126 C 11.987 12.094 12.006 12.066 12.036 12.055 C 14.043 11.272 15.161 9.721 15.458 7.322 C 15.46 7.252 15.513 7.194 15.582 7.187 L 18.071 7.187 C 18.116 7.185 18.154 7.221 18.154 7.266 L 18.154 11.573 C 18.154 11.616 18.189 11.652 18.233 11.652 L 21.35 11.652 C 21.394 11.652 21.429 11.687 21.429 11.731 L 21.429 14.577 C 21.429 14.621 21.394 14.656 21.35 14.656 L 18.222 14.656 C 18.177 14.656 18.141 14.691 18.139 14.735 L 18.139 19.848 C 18.139 20.977 18.715 21.579 19.795 21.579 C 20.271 21.57 20.741 21.477 21.184 21.305 C 21.226 21.287 21.274 21.31 21.286 21.354 L 22.084 23.714 C 22.095 23.742 22.089 23.774 22.069 23.797 Z" style="fill: rgb(59, 68, 92);"></path>
</symbol>
<use href='#$tumblr' id='tumblr'></use>
<use href='#$tumblr' id='tumblr-circular'></use>
<use href='#$tumblr' id='tumblr-squircle'></use>

<symbol id="$pinterest"> 
    <path d="M 0 0 L 32 0 L 32 32 L 0 32 Z M 16.43 7.04 C 11.539 7.04 9.073 10.545 9.073 13.47 C 9.073 15.24 9.744 16.813 11.178 17.404 C 11.393 17.497 11.64 17.373 11.694 17.145 C 11.743 16.964 11.856 16.508 11.904 16.32 C 11.987 16.117 11.928 15.883 11.758 15.744 C 11.289 15.179 11.046 14.46 11.076 13.726 C 11.076 11.125 13.023 8.798 16.147 8.798 C 18.922 8.798 20.428 10.481 20.428 12.74 C 20.428 15.71 19.114 18.214 17.164 18.214 C 16.093 18.267 15.276 17.269 15.541 16.23 C 15.85 14.927 16.448 13.519 16.448 12.578 C 16.448 11.735 15.997 11.034 15.059 11.034 C 13.96 11.034 13.075 12.19 13.075 13.696 C 13.068 14.256 13.18 14.812 13.403 15.326 C 13.403 15.326 12.277 20.1 12.081 20.936 C 11.671 22.588 12.021 24.64 12.048 24.847 C 12.049 24.852 12.05 24.857 12.052 24.861 C 12.087 24.963 12.218 24.988 12.288 24.907 C 12.386 24.772 13.7 23.153 14.144 21.538 C 14.269 21.079 14.867 18.707 14.867 18.707 C 15.225 19.392 16.272 19.991 17.382 19.991 C 20.676 19.991 22.935 16.975 22.935 12.936 C 22.935 9.882 20.352 7.04 16.43 7.04 Z" style="fill: rgb(189, 8, 28);"></path>
</symbol>
<use href='#$pinterest' id='pinterest'></use>
<use href='#$pinterest' id='pinterest-circular'></use>
<use href='#$pinterest' id='pinterest-squircle'></use>

<symbol id="$twitter"> 
    <path d="M 0 0 L 32 0 L 32 32 L 0 32 Z M 24.96 10.443 C 24.289 10.739 23.577 10.935 22.848 11.023 C 23.617 10.563 24.193 9.839 24.467 8.986 C 23.744 9.415 22.954 9.716 22.129 9.879 C 20.191 7.815 16.745 8.625 15.927 11.335 C 15.824 11.679 15.771 12.035 15.771 12.394 C 15.771 12.676 15.803 12.958 15.865 13.233 C 12.911 13.089 10.156 11.7 8.283 9.412 C 7.313 11.086 7.807 13.226 9.412 14.306 C 8.828 14.288 8.256 14.13 7.744 13.847 L 7.744 13.896 C 7.746 15.646 8.98 17.153 10.696 17.498 C 10.154 17.644 9.587 17.666 9.036 17.562 C 9.516 19.061 10.896 20.087 12.469 20.115 C 11.167 21.133 9.56 21.685 7.906 21.681 C 7.613 21.681 7.32 21.663 7.029 21.628 C 8.712 22.713 10.674 23.287 12.676 23.281 C 19.453 23.281 23.138 17.679 23.138 12.823 C 23.138 12.661 23.138 12.503 23.138 12.345 C 23.854 11.824 24.471 11.18 24.96 10.443 Z" style="fill: rgb(85, 172, 238);"></path>
</symbol>
<use href='#$twitter' id='twitter'></use>
<use href='#$twitter' id='twitter-circular'></use>
<use href='#$twitter' id='twitter-squircle'></use>

<symbol id="$youtube"> 
    <path d="M 0 0 L 32 0 L 32 32 L 0 32 L 0 0 Z M 24.96 12.424 C 24.955 11.012 23.812 9.868 22.4 9.864 L 9.6 9.864 C 8.187 9.868 7.044 11.012 7.04 12.424 L 7.04 19.577 C 7.044 20.989 8.187 22.132 9.6 22.137 L 22.4 22.137 C 23.812 22.132 24.955 20.989 24.96 19.577 L 24.96 12.424 Z M 14.147 13.177 L 18.993 15.684 L 14.147 18.191 L 14.147 13.177 Z" style="fill: rgb(229, 45, 39);"></path>
</symbol>
<use href='#$youtube' id='youtube'></use>
<use href='#$youtube' id='youtube-circular'></use>
<use href='#$youtube' id='youtube-squircle'></use>

<symbol id="$whatsapp"> 
    <path d="M 0.001 0 L 32.001 0 L 32.001 32 L 0.001 32 Z M 11.773 23.763 C 13.082 24.475 14.548 24.848 16.038 24.847 C 19.222 24.847 22.165 23.149 23.76 20.394 C 27.2 14.449 22.914 7.009 16.046 7.002 C 9.177 6.996 4.877 14.427 8.306 20.378 L 7.041 25.002 Z M 9.168 22.882 L 9.921 20.145 L 9.744 19.866 C 9.696 19.79 9.649 19.713 9.604 19.635 C 6.748 14.688 10.319 8.504 16.031 8.505 C 17.999 8.498 19.887 9.282 21.271 10.681 C 21.73 11.139 22.126 11.655 22.45 12.217 C 25.304 17.161 21.736 23.341 16.027 23.341 C 14.702 23.341 13.401 22.983 12.262 22.306 L 11.991 22.148 Z M 20.533 18.048 C 20.477 17.954 20.33 17.898 20.108 17.788 C 19.886 17.679 18.787 17.137 18.583 17.062 C 18.38 16.986 18.229 16.949 18.083 17.175 C 17.936 17.401 17.507 17.898 17.375 18.048 C 17.243 18.199 17.115 18.214 16.893 18.105 C 16.236 17.842 15.63 17.468 15.101 16.998 C 14.614 16.546 14.195 16.026 13.859 15.454 C 13.756 15.302 13.801 15.095 13.956 14.999 C 14.058 14.897 14.179 14.739 14.291 14.622 C 14.382 14.507 14.457 14.381 14.514 14.246 C 14.575 14.128 14.575 13.987 14.514 13.869 C 14.457 13.76 14.013 12.661 13.828 12.217 C 13.644 11.772 13.452 11.84 13.324 11.84 C 13.196 11.84 13.045 11.84 12.899 11.84 C 12.67 11.846 12.454 11.947 12.304 12.119 C 11.795 12.602 11.512 13.277 11.524 13.978 C 11.524 15.078 12.323 16.136 12.432 16.286 C 12.541 16.437 14.005 18.684 16.242 19.652 C 16.658 19.83 17.082 19.987 17.514 20.122 C 17.969 20.26 18.45 20.289 18.918 20.209 C 19.347 20.145 20.236 19.671 20.424 19.151 C 20.573 18.803 20.611 18.418 20.533 18.048 Z" style="fill: rgb(37, 211, 102);"></path>
</symbol>
<use href='#$whatsapp' id='whatsapp'></use>
<use href='#$whatsapp' id='whatsapp-circular'></use>
<use href='#$whatsapp' id='whatsapp-squircle'></use>

<symbol id="$reddit"> 
    <path d="M 0 0 L 32 0 L 32 32 L 0 32 Z M 14.683 12.627 C 14.683 11.757 13.742 11.214 12.989 11.649 C 12.236 12.084 12.236 13.17 12.989 13.605 C 13.16 13.704 13.355 13.756 13.553 13.756 C 14.177 13.756 14.683 13.251 14.683 12.627 Z M 18.448 11.513 C 17.578 11.513 17.035 12.454 17.469 13.207 C 17.904 13.96 18.991 13.96 19.426 13.207 C 19.525 13.035 19.577 12.84 19.577 12.642 C 19.577 12.018 19.071 11.513 18.448 11.513 Z M 18.165 15.36 C 17.744 15.782 17.036 15.989 16.001 15.989 C 14.965 15.989 14.257 15.782 13.836 15.36 C 13.666 15.192 13.378 15.27 13.318 15.501 C 13.289 15.608 13.32 15.723 13.399 15.801 C 13.941 16.343 14.8 16.606 16.001 16.606 C 17.201 16.606 18.06 16.343 18.602 15.801 C 18.725 15.68 18.725 15.481 18.602 15.36 C 18.481 15.241 18.287 15.241 18.165 15.36 Z M 24.065 11.411 C 24.062 10.399 23.243 9.58 22.231 9.577 C 21.782 9.578 21.349 9.744 21.015 10.044 C 19.635 9.202 18.057 8.74 16.441 8.704 L 17.386 5.715 L 19.957 6.321 C 19.966 7.48 21.226 8.196 22.225 7.609 C 23.225 7.022 23.215 5.573 22.207 5.001 C 21.428 4.558 20.438 4.89 20.081 5.711 L 17.247 5.045 C 17.084 4.999 16.916 5.093 16.87 5.256 L 15.812 8.697 C 14.117 8.697 12.454 9.162 11.005 10.041 C 9.948 9.104 8.275 9.663 7.992 11.046 C 7.836 11.81 8.181 12.589 8.851 12.988 C 8.822 13.16 8.808 13.334 8.81 13.508 C 8.81 14.818 9.563 16.041 10.971 16.953 C 11.43 17.254 11.92 17.507 12.432 17.705 C 11.311 18.313 10.631 19.504 10.677 20.777 C 10.677 22.347 11.603 23.665 12.846 24.004 C 12.938 24.297 13.046 24.585 13.169 24.866 L 12.996 24.866 C 11.867 24.866 10.971 25.619 10.971 26.564 C 10.974 26.715 10.999 26.865 11.046 27.008 C 11.088 27.136 11.208 27.223 11.344 27.223 L 20.631 27.223 C 20.767 27.222 20.888 27.134 20.929 27.004 C 20.975 26.862 21.001 26.714 21.004 26.564 C 21.004 25.63 20.093 24.866 18.978 24.866 L 18.854 24.866 C 18.971 24.595 19.076 24.309 19.174 24.008 C 20.417 23.669 21.343 22.351 21.343 20.781 C 21.385 19.501 20.702 18.307 19.577 17.694 C 20.089 17.503 20.579 17.257 21.038 16.96 C 22.431 16.049 23.199 14.825 23.199 13.515 C 23.2 13.341 23.186 13.167 23.157 12.996 C 23.719 12.666 24.065 12.063 24.065 11.411 Z M 22.359 6.31 C 22.362 6.997 21.62 7.429 21.024 7.088 C 20.428 6.747 20.424 5.889 21.017 5.543 C 21.154 5.463 21.309 5.421 21.467 5.421 C 21.958 5.421 22.357 5.818 22.359 6.31 Z M 20.383 26.541 C 20.385 26.554 20.385 26.566 20.383 26.579 L 17.747 26.579 C 18.043 26.261 18.296 25.907 18.5 25.525 C 18.65 25.485 18.805 25.465 18.96 25.465 C 19.75 25.465 20.383 25.95 20.383 26.541 Z M 12.977 25.465 C 13.151 25.464 13.323 25.489 13.489 25.54 C 13.696 25.916 13.949 26.265 14.242 26.579 L 11.569 26.579 L 11.569 26.541 C 11.573 25.95 12.202 25.465 12.977 25.465 Z M 16.769 26.594 L 15.233 26.594 C 13.855 25.807 12.861 23.055 12.861 19.994 C 12.861 19.296 12.913 18.599 13.015 17.909 C 14.964 18.481 17.037 18.481 18.986 17.909 C 19.088 18.599 19.14 19.296 19.14 19.994 C 19.14 23.04 18.146 25.792 16.769 26.579 Z M 12.315 18.485 C 12.265 18.985 12.239 19.488 12.24 19.991 C 12.234 21.091 12.361 22.188 12.616 23.258 C 11.747 22.739 11.231 21.786 11.272 20.774 C 11.246 19.886 11.631 19.036 12.315 18.47 Z M 19.758 19.994 C 19.758 19.492 19.733 18.989 19.682 18.489 C 20.362 19.053 20.745 19.898 20.721 20.781 C 20.756 21.784 20.245 22.727 19.385 23.244 C 19.638 22.18 19.763 21.089 19.758 19.994 Z M 15.993 17.717 C 12.36 17.717 9.401 15.834 9.401 13.523 C 9.401 11.211 12.36 9.329 15.993 9.329 C 19.626 9.329 22.585 11.211 22.585 13.523 C 22.585 15.834 19.633 17.694 16.001 17.694 Z M 9.789 10.199 C 10.037 10.198 10.279 10.274 10.481 10.417 C 9.824 10.912 9.316 11.581 9.017 12.348 C 8.295 11.757 8.485 10.606 9.358 10.277 C 9.496 10.225 9.642 10.198 9.789 10.199 Z M 21.557 10.417 C 21.76 10.274 22.002 10.198 22.25 10.199 C 23.183 10.196 23.769 11.205 23.304 12.014 C 23.231 12.142 23.135 12.255 23.022 12.348 C 22.716 11.58 22.202 10.911 21.538 10.417 Z" style="fill: rgb(255, 69, 0);"></path>
</symbol>
<use href='#$reddit' id='reddit'></use>
<use href='#$reddit' id='reddit-circular'></use>
<use href='#$reddit' id='reddit-squircle'></use>

<symbol id="$snapchat"> 
    <path d="M 0 0 L 32 0 L 32 32 L 0 32 Z M 18.433 23.315 C 18.827 22.984 19.292 22.747 19.792 22.622 C 20.028 22.582 20.267 22.562 20.507 22.562 C 20.84 22.562 21.172 22.598 21.497 22.667 C 21.621 22.694 21.747 22.709 21.873 22.713 C 21.987 22.724 22.09 22.647 22.111 22.536 C 22.152 22.396 22.182 22.265 22.212 22.133 C 22.291 21.764 22.344 21.568 22.48 21.568 C 24.129 21.312 24.599 20.966 24.705 20.721 C 24.718 20.687 24.727 20.652 24.731 20.616 C 24.734 20.52 24.667 20.437 24.573 20.42 C 22.039 20.002 20.902 17.412 20.857 17.303 C 20.706 17.059 20.672 16.76 20.767 16.489 C 20.955 16.083 21.52 15.902 21.896 15.782 L 22.145 15.699 C 22.803 15.439 22.931 15.176 22.931 14.999 C 22.896 14.774 22.727 14.594 22.506 14.543 C 22.409 14.504 22.306 14.483 22.201 14.483 C 22.111 14.482 22.021 14.5 21.938 14.536 C 21.672 14.668 21.383 14.749 21.087 14.773 C 20.907 14.776 20.732 14.714 20.593 14.6 C 20.601 14.445 20.624 14.283 20.624 14.118 L 20.624 14.065 C 20.699 12.868 20.789 11.377 20.413 10.526 C 19.671 8.837 17.992 7.755 16.147 7.778 L 15.793 7.778 C 13.951 7.756 12.275 8.838 11.536 10.526 C 11.155 11.373 11.249 12.864 11.325 14.061 C 11.359 14.246 11.359 14.426 11.359 14.596 C 11.21 14.724 11.016 14.786 10.82 14.769 C 10.505 14.757 10.197 14.676 9.917 14.532 C 9.851 14.504 9.781 14.49 9.71 14.49 C 9.408 14.479 9.132 14.658 9.021 14.938 C 8.994 15.089 9.051 15.394 9.804 15.691 L 10.052 15.774 C 10.429 15.895 11.005 16.075 11.182 16.482 C 11.272 16.753 11.239 17.05 11.091 17.295 C 11.046 17.401 9.909 19.998 7.376 20.412 C 7.282 20.431 7.216 20.513 7.217 20.608 C 7.221 20.644 7.23 20.68 7.244 20.713 C 7.349 20.958 7.824 21.308 9.469 21.561 C 9.612 21.583 9.665 21.79 9.74 22.129 C 9.766 22.261 9.796 22.396 9.838 22.536 C 9.862 22.654 9.974 22.733 10.094 22.716 C 10.221 22.711 10.347 22.693 10.47 22.664 C 10.796 22.595 11.127 22.558 11.46 22.554 C 11.7 22.554 11.939 22.574 12.176 22.615 C 12.676 22.74 13.142 22.977 13.538 23.307 C 14.182 23.763 14.849 24.237 15.891 24.237 L 16.11 24.237 C 17.153 24.237 17.819 23.763 18.433 23.315 Z" style="fill: rgb(255, 234, 0);"></path>
</symbol>
<use href='#$snapchat' id='snapchat'></use>
<use href='#$snapchat' id='snapchat-circular'></use>
<use href='#$snapchat' id='snapchat-squircle'></use>

<symbol id="$yelp"> 
    <path d="M 0 0 L 32 0 L 32 32 L 0 32 Z M 9.521 15.669 C 9.228 16.132 9.107 17.6 9.209 18.579 C 9.225 18.838 9.285 19.093 9.386 19.332 C 9.48 19.547 9.686 19.693 9.92 19.708 C 10.064 19.708 10.154 19.69 12.842 18.827 L 14.043 18.451 C 14.352 18.359 14.564 18.074 14.562 17.751 C 14.603 17.411 14.41 17.086 14.092 16.96 L 13.245 16.614 C 10.353 15.424 10.233 15.375 10.079 15.375 C 9.853 15.363 9.639 15.476 9.521 15.669 Z M 15.985 24.55 C 16.034 24.414 16.038 24.324 16.046 21.497 C 16.046 21.497 16.046 20.247 16.046 20.235 C 16.046 19.915 15.844 19.63 15.541 19.524 C 15.23 19.39 14.868 19.472 14.645 19.727 C 14.645 19.727 14.058 20.427 14.054 20.427 C 12.029 22.807 11.946 22.916 11.897 23.063 C 11.864 23.145 11.852 23.234 11.863 23.322 C 11.877 23.462 11.934 23.593 12.025 23.699 C 12.496 24.256 14.747 25.084 15.466 24.964 C 15.703 24.935 15.905 24.775 15.985 24.55 Z M 20.556 23.567 C 21.233 23.296 22.717 21.414 22.815 20.687 C 22.86 20.46 22.778 20.226 22.6 20.077 C 22.483 19.994 22.397 19.961 19.709 19.08 L 18.515 18.681 C 18.211 18.575 17.874 18.683 17.687 18.944 C 17.453 19.196 17.419 19.573 17.604 19.863 L 18.079 20.634 C 19.675 23.228 19.799 23.409 19.912 23.499 C 20.096 23.639 20.343 23.666 20.552 23.567 Z M 19.167 16.896 C 22.224 16.143 22.34 16.117 22.461 16.038 C 22.649 15.905 22.75 15.68 22.724 15.45 L 22.724 15.435 C 22.645 14.682 21.328 12.732 20.68 12.424 C 20.476 12.313 20.227 12.323 20.033 12.45 C 19.912 12.525 19.829 12.642 18.192 14.878 C 18.192 14.878 17.439 15.887 17.439 15.898 C 17.248 16.156 17.248 16.507 17.439 16.764 C 17.607 17.059 17.946 17.212 18.278 17.141 L 18.278 17.163 C 18.406 17.077 18.677 17.013 19.167 16.896 Z M 16.098 14.374 C 16.046 13.162 15.684 7.77 15.639 7.522 C 15.573 7.291 15.382 7.116 15.146 7.07 C 14.367 6.874 11.381 7.71 10.835 8.279 C 10.667 8.436 10.594 8.671 10.643 8.896 C 10.73 9.073 14.408 14.886 14.408 14.886 C 14.954 15.77 15.402 15.639 15.537 15.586 C 15.673 15.533 16.147 15.405 16.098 14.374 Z" style="fill: rgb(212, 29, 32);"></path>
</symbol>
<use href='#$yelp' id='yelp'></use>
<use href='#$yelp' id='yelp-circular'></use>
<use href='#$yelp' id='yelp-squircle'></use>

<symbol id="$stumbleupon"> 
    <path d="M 0.001 0 L 32.001 0 L 32.001 32 L 0.001 32 Z M 24.972 18.778 L 24.972 15.962 L 21.983 15.962 L 21.983 18.861 C 21.944 19.4 21.499 19.819 20.959 19.825 C 20.435 19.825 19.75 19.369 19.75 18.861 L 19.75 15.985 L 18.188 17.114 L 16.814 16.06 L 16.814 18.824 C 16.814 20.977 18.753 22.716 20.955 22.716 C 23.155 22.746 24.958 20.978 24.972 18.778 Z M 16.821 13.214 L 16.821 14.295 L 18.372 15.187 L 19.739 14.325 L 19.739 13.079 C 19.671 10.963 18.229 9.265 16.053 9.265 C 13.954 9.261 12.246 10.956 12.236 13.056 L 12.236 18.741 C 12.236 19.249 11.585 19.671 11.061 19.671 C 10.521 19.68 10.062 19.278 10 18.741 L 10 15.993 L 7.048 15.993 L 7.048 18.771 C 7.069 20.962 8.862 22.722 11.054 22.701 C 13.252 22.701 15.21 20.977 15.248 18.824 L 15.248 13.229 C 15.248 12.713 15.477 12.299 16.001 12.299 C 16.49 12.304 16.87 12.727 16.821 13.214 Z" style="fill: rgb(234, 75, 36);"></path>
</symbol>
<use href='#$stumbleupon' id='stumbleupon'></use>
<use href='#$stumbleupon' id='stumbleupon-circular'></use>
<use href='#$stumbleupon' id='stumbleupon-squircle'></use>
</svg>